name C:\Users\u0101727\Documents\MyRepositories\upper-imu-dc\Results\main_tracking\Case_45\FLX01_orientations_groundFrame.mot
datacolumns 13
datarows 14
range 5.00600000 5.08400000
endheader 
time	radius_imu_[0][0]	radius_imu_[0][1]	radius_imu_[0][2]	radius_imu_[1][0]	radius_imu_[1][1]	radius_imu_[1][2]	radius_imu_[2][0]	radius_imu_[2][1]	radius_imu_[2][2]	radius_imu_x	radius_imu_y	radius_imu_z	
          5.00600000	          0.25877022	         -0.89560740	          0.36183610	         -0.30754114	          0.27871187	          0.90980116	         -0.91567266	         -0.34670893	         -0.20331378	         -1.79065456	          0.37023669	          1.28952373	
          5.01200000	          0.25787174	         -0.89300705	          0.36883678	         -0.30448722	          0.28718267	          0.90819252	         -0.91694585	         -0.34650327	         -0.19785294	         -1.78529833	          0.37775725	          1.28967583	
          5.01800000	          0.25712993	         -0.89033011	          0.37576123	         -0.30137062	          0.29556622	          0.90654088	         -0.91818296	         -0.34634219	         -0.19232041	         -1.77984446	          0.38521806	          1.28964348	
          5.02400000	          0.25664510	         -0.88754202	          0.38262573	         -0.29819330	          0.30385975	          0.90484806	         -0.91935523	         -0.34632125	         -0.18667497	         -1.77424728	          0.39263663	          1.28931033	
          5.03000000	          0.25655683	         -0.88459367	          0.38945170	         -0.29495746	          0.31206043	          0.90311593	         -0.92042311	         -0.34657224	         -0.18085627	         -1.76844003	          0.40003622	          1.28851319	
          5.03600000	          0.25703564	         -0.88142414	          0.39626274	         -0.29166552	          0.32016545	          0.90134639	         -0.92133810	         -0.34725433	         -0.17478710	         -1.76233682	          0.40744277	          1.28705073	
          5.04200000	          0.25823636	         -0.87797757	          0.40307489	         -0.28832026	          0.32817208	          0.89954128	         -0.92205499	         -0.34850893	         -0.16839276	         -1.75585298	          0.41487429	          1.28473685	
          5.04800000	          0.26021339	         -0.87423428	          0.40988219	         -0.28492505	          0.33607793	          0.89770225	         -0.92255445	         -0.35037985	         -0.16163927	         -1.74894631	          0.42232490	          1.28149946	
          5.05400000	          0.26287018	         -0.87023008	          0.41665199	         -0.28148409	          0.34388126	          0.89583056	         -0.92285751	         -0.35276805	         -0.15455979	         -1.74164672	          0.42975929	          1.27744176	
          5.06000000	          0.26601103	         -0.86603804	          0.42333939	         -0.27800261	          0.35158120	          0.89392685	         -0.92301283	         -0.35548385	         -0.14723636	         -1.73403808	          0.43712814	          1.27278502	
          5.06600000	          0.26943653	         -0.86173352	          0.42990614	         -0.27448694	          0.35917791	          0.89199112	         -0.92307144	         -0.35833861	         -0.13975894	         -1.72621474	          0.44438882	          1.26775837	
          5.07200000	          0.27299573	         -0.85737431	          0.43632857	         -0.27094447	          0.36667255	          0.89002266	         -0.92307228	         -0.36119319	         -0.13220079	         -1.71825460	          0.45151428	          1.26253723	
          5.07800000	          0.27659010	         -0.85299852	          0.44259625	         -0.26738363	          0.37406714	          0.88802014	         -0.92304058	         -0.36396057	         -0.12461457	         -1.71021448	          0.45849188	          1.25723728	
          5.08400000	          0.28016006	         -0.84862914	          0.44870806	         -0.26381382	          0.38136447	          0.88598161	         -0.92299112	         -0.36659205	         -0.11703700	         -1.70213458	          0.46531918	          1.25192928	
